name rise30.9205peak61.366fall85.3838.mot
datacolumns 19
datarows 11
range 6.61831300000000 6.63497900000000
endheader
time	ground_force1_vx	ground_force1_vy	ground_force1_vz	ground_force1_px	ground_force1_py	ground_force1_pz	ground_force2_vx	ground_force2_vy	ground_force2_vz	ground_force2_px	ground_force2_py	ground_force2_pz	ground_torque1_x	ground_torque1_y	ground_torque1_z	ground_torque2_x	ground_torque2_y	ground_torque2_z	
6.61831300000000	-11.85944200000000	43.90940800000000	-11.48345400000000	0.35641100000000	0.00000000000000	0.06519900000000	-57.51570200000000	819.97944700000005	-53.75995700000000	0.11310500000000	0.00000000000000	-0.10656300000000	0.00000000000000	-8.24639200000000	0.00000000000000	0.00000000000000	-21.43757100000000	0.00000000000000	
6.61997300000000	-12.95179800000000	49.95011600000000	-12.67354000000000	0.35971300000000	0.00000000000000	0.06600100000000	-57.87863800000000	817.60372099999995	-53.48561500000000	0.11245800000000	0.00000000000000	-0.10650600000000	0.00000000000000	-9.13416500000000	0.00000000000000	0.00000000000000	-21.34989600000000	0.00000000000000	
6.62164600000000	-13.87373900000000	55.86675600000000	-13.72987100000000	0.36277100000000	0.00000000000000	0.06675100000000	-58.24702900000000	815.14008000000001	-53.19680700000000	0.11181800000000	0.00000000000000	-0.10644500000000	0.00000000000000	-9.93023800000000	0.00000000000000	0.00000000000000	-21.26299700000000	0.00000000000000	
6.62330600000000	-14.60789000000000	61.59643800000000	-14.63476900000000	0.36561100000000	0.00000000000000	0.06745600000000	-58.62148600000000	812.58809499999995	-52.89357800000000	0.11118400000000	0.00000000000000	-0.10638100000000	0.00000000000000	-10.62101700000000	0.00000000000000	0.00000000000000	-21.17707700000000	0.00000000000000	
6.62498100000000	-15.14710800000000	67.10184300000000	-15.37957200000000	0.36825900000000	0.00000000000000	0.06812300000000	-59.00259000000000	809.94727699999999	-52.57597700000000	0.11055600000000	0.00000000000000	-0.10631300000000	0.00000000000000	-11.19949300000000	0.00000000000000	0.00000000000000	-21.09233300000000	0.00000000000000	
6.62664200000000	-15.49364700000000	72.37042700000001	-15.96401800000000	0.37073300000000	0.00000000000000	0.06875500000000	-59.39089300000000	807.21706800000004	-52.24405800000000	0.10993400000000	0.00000000000000	-0.10624300000000	0.00000000000000	-11.66484400000000	0.00000000000000	0.00000000000000	-21.00895400000000	0.00000000000000	
6.62830700000000	-15.65770500000000	77.41171700000000	-16.39503700000000	0.37305100000000	0.00000000000000	0.06935600000000	-59.78691000000000	804.39684399999999	-51.89787800000000	0.10931700000000	0.00000000000000	-0.10616900000000	0.00000000000000	-12.02160600000000	0.00000000000000	0.00000000000000	-20.92712200000000	0.00000000000000	
6.62997600000000	-15.65555900000000	82.25327200000000	-16.68516500000000	0.37522800000000	0.00000000000000	0.06993100000000	-60.19111500000000	801.48591399999998	-51.53749600000000	0.10870600000000	0.00000000000000	-0.10609300000000	0.00000000000000	-12.27853100000000	0.00000000000000	0.00000000000000	-20.84701000000000	0.00000000000000	
6.63164500000000	-15.50752400000000	86.93584100000000	-16.85077500000000	0.37727600000000	0.00000000000000	0.07048100000000	-60.60394000000000	798.48351600000001	-51.16297500000000	0.10809900000000	0.00000000000000	-0.10601300000000	0.00000000000000	-12.44730300000000	0.00000000000000	0.00000000000000	-20.76878200000000	0.00000000000000	
6.63331400000000	-15.23594100000000	91.50830300000000	-16.91029700000000	0.37920800000000	0.00000000000000	0.07101000000000	-61.02576700000000	795.38881800000001	-50.77438200000000	0.10749600000000	0.00000000000000	-0.10593000000000	0.00000000000000	-12.54122700000000	0.00000000000000	0.00000000000000	-20.69259200000000	0.00000000000000	
6.63497900000000	-14.86333600000000	96.02279400000000	-16.88258300000000	0.38103200000000	0.00000000000000	0.07151900000000	-61.45692700000000	792.20091900000000	-50.37178700000000	0.10689700000000	0.00000000000000	-0.10584400000000	0.00000000000000	-12.57401500000000	0.00000000000000	0.00000000000000	-20.61858400000000	0.00000000000000	
